# xmcd
#
# Track frame offsets: 
#        150
#        14284
#        30076
#        46420
#        60252
#        76852
#        101065
#        113741
#        130350
#        146830
#        162988
#
# Disc length: 2359 seconds
#
# Revision: 0
# Processed by: cddbd v1.5.2PL0 Copyright (c) Steve Scherf et al.
# Submitted via: ExactAudioCopy v0.95b3
#
DISCID=8409350b
DTITLE=Wyckham Porteus - 3 AM
DYEAR=2007
DGENRE=
TTITLE0=Deep Into the Water
TTITLE1=I Will Follow
TTITLE2=Please, Please, Me
TTITLE3=Harper's Ferry
TTITLE4=Hungry Heart
TTITLE5=Ancient Highway
TTITLE6=Teach Me Tonight
TTITLE7=Beggar's Harbour
TTITLE8=3 AM
TTITLE9=Young Man Walking
TTITLE10=Spanish Harlem
EXTD=
EXTT0=
EXTT1=
EXTT2=
EXTT3=
EXTT4=
EXTT5=
EXTT6=
EXTT7=
EXTT8=
EXTT9=
EXTT10=
PLAYORDER=
